<?xml version="1.0" encoding="UTF-8"?>
<svg id="b" data-name="Layer 2" xmlns="http://www.w3.org/2000/svg" viewBox="0 0 362.9 98.35">
  <g id="c" data-name="Layer 2">
    <g>
      <rect width="362.9" height="98.35" style="fill: #0c2238; stroke-width: 0px;"/>
      <path d="m23.8,81.12v7.43h-4.76v-20h7.88c1.76,0,3.1.19,4.04.56.93.38,1.76,1.05,2.5,2.01s1.1,2.15,1.1,3.56c0,.99-.2,1.95-.59,2.89s-.94,1.67-1.66,2.21-1.4.89-2.07,1.07-1.72.26-3.14.26h-3.3Zm-.16-3.63h3.05c1.16,0,1.98-.27,2.45-.81s.7-1.15.7-1.85c0-.81-.26-1.46-.78-1.93-.52-.48-1.32-.72-2.38-.72h-3.03v5.3Zm25.97,11.06h-4.23c-.14-.59-.21-1.36-.21-2.31-.74,1.05-1.48,1.76-2.22,2.1-.74.35-1.57.52-2.51.52-1.38,0-2.5-.38-3.36-1.13-.85-.75-1.28-1.76-1.28-3.03,0-.93.25-1.78.75-2.56s1.3-1.39,2.4-1.84,3.11-.77,6.03-.99v-.85c0-1.44-.72-2.15-2.15-2.15-1.53,0-2.38.72-2.56,2.15l-4.03-.38c.26-1.68,1.06-2.87,2.39-3.57s2.83-1.05,4.51-1.05c1.01,0,1.95.12,2.84.35s1.58.59,2.08,1.05.83.96,1.01,1.49.26,1.43.26,2.73v6.71c0,1.29.09,2.21.26,2.77Zm-4.63-7.09c-3.05.3-4.57,1.23-4.57,2.77,0,.52.16.96.48,1.34s.78.56,1.37.56c.77,0,1.41-.32,1.93-.96.52-.64.78-1.43.78-2.37v-1.35Zm20.98,1.54c-.17,1.75-.86,3.16-2.07,4.24-1.21,1.08-2.79,1.62-4.71,1.62-2.09,0-3.79-.69-5.11-2.07-1.31-1.38-1.97-3.23-1.97-5.54s.67-4.19,2.01-5.63c1.34-1.44,3.14-2.16,5.38-2.16,1.81,0,3.3.54,4.49,1.63,1.19,1.08,1.84,2.44,1.97,4.07l-4.07.23c-.14-1.78-.91-2.67-2.31-2.67-1.73,0-2.59,1.42-2.59,4.25,0,1.88.24,3.08.72,3.59.48.51,1.07.76,1.77.76,1.35,0,2.15-.85,2.42-2.56l4.07.25Zm6.71-14.85v4.37h-4.37v-4.37h4.37Zm0,5.61v14.79h-4.37v-14.79h4.37Zm8.14,3.4v11.4h-4.25v-11.4h-1.71v-3.4h1.71c.02-1.52.13-2.63.33-3.33.2-.7.71-1.32,1.54-1.86.83-.54,1.96-.81,3.38-.81.59,0,1.26.05,2.02.16v3.37c-.62-.05-1.14-.07-1.55-.07-.6,0-.99.16-1.19.47s-.29.82-.29,1.52v.56h2.68v3.4h-2.68Zm9.4-9.01v4.37h-4.37v-4.37h4.37Zm0,5.61v14.79h-4.37v-14.79h4.37Zm16.6,9.24c-.17,1.75-.86,3.16-2.07,4.24-1.21,1.08-2.79,1.62-4.71,1.62-2.09,0-3.79-.69-5.11-2.07-1.31-1.38-1.97-3.23-1.97-5.54s.67-4.19,2.01-5.63c1.34-1.44,3.14-2.16,5.38-2.16,1.81,0,3.3.54,4.49,1.63,1.19,1.08,1.84,2.44,1.97,4.07l-4.07.23c-.14-1.78-.91-2.67-2.31-2.67-1.73,0-2.59,1.42-2.59,4.25,0,1.88.24,3.08.72,3.59.48.51,1.07.76,1.77.76,1.35,0,2.15-.85,2.42-2.56l4.07.25Zm25.43-14.44v20h-4l-7.83-13.51c0,.34.02.57.03.67.04.34.06.63.06.86v11.97h-3.65v-20h5.05l6.8,11.79c-.06-.59-.09-1.03-.09-1.33v-10.46h3.62Zm9.94,4.89c2.25,0,4.01.74,5.28,2.21,1.26,1.47,1.9,3.32,1.9,5.54s-.66,4.01-1.97,5.47c-1.31,1.46-3.06,2.19-5.23,2.19s-3.79-.72-5.06-2.17c-1.26-1.45-1.89-3.3-1.89-5.57,0-1.57.29-2.91.86-4.01.57-1.1,1.35-1.98,2.35-2.66,1-.67,2.25-1.01,3.78-1.01Zm.12,2.86c-.83,0-1.45.32-1.87.96-.42.64-.63,1.91-.63,3.82,0,1.75.2,3,.6,3.76s1.02,1.14,1.87,1.14c.74,0,1.34-.32,1.8-.97s.69-1.89.69-3.71c0-1.94-.2-3.26-.61-3.96s-1.02-1.04-1.85-1.04Zm14.04,12.25h-4.23v-14.79h4v2.75c.62-2.05,1.68-3.08,3.19-3.08.21,0,.48.01.79.04v4.31c-.89,0-1.58.14-2.07.41-.49.27-.9.76-1.21,1.47-.31.71-.47,1.66-.47,2.86v6.02Zm11.7-11.4v6.25c0,.78.12,1.3.35,1.57s.78.4,1.65.4c.4,0,.86-.02,1.39-.06v3.24c-1.27.21-2.18.32-2.74.32-1.82,0-3.11-.35-3.87-1.05s-1.14-1.96-1.14-3.79v-6.88h-2.34v-3.4h2.59l.35-4.37,3.76-.29v4.66h3.18v3.4h-3.18Zm9.86-8.6v7.21c.8-1.55,2.13-2.32,4-2.32,1,0,1.85.22,2.56.65.71.44,1.21.99,1.49,1.68s.43,1.68.43,3v9.77h-4.37v-8.35c0-1-.04-1.68-.12-2.05-.08-.37-.25-.68-.53-.93s-.62-.37-1.04-.37c-.54,0-1.08.21-1.62.64-.54.43-.8,1.33-.8,2.72v8.35h-4.23v-20h4.23Zm43.78,0l-5.02,20h-4.6l-3.29-13.23-3.17,13.23h-4.57l-5.14-20h4.78l2.76,12.2c0,.06.06.27.16.64.04.14.09.34.16.62l3.27-13.46h4.32l3.36,13.46c.07-.25.17-.67.29-1.26l2.84-12.2h3.85Zm14.53,13.33h-9.52c0,.26-.01.49-.01.69,0,1.05.28,1.85.84,2.39.56.54,1.23.81,2.01.81,1.46,0,2.33-.78,2.62-2.33l3.96.29c-1.1,3.42-3.34,5.13-6.72,5.13-1.47,0-2.73-.3-3.76-.89-1.03-.59-1.88-1.45-2.55-2.59s-1-2.49-1-4.07c0-2.35.67-4.25,2.01-5.7,1.34-1.45,3.07-2.17,5.18-2.17,1.9,0,3.54.67,4.9,2.01,1.36,1.34,2.04,3.48,2.04,6.42Zm-9.54-2.53h5.26c-.14-2.03-.97-3.05-2.5-3.05-1.64,0-2.56,1.02-2.75,3.05Zm23.36-2.02l-3.18.85c-.37-1.34-1.33-2.01-2.89-2.01-1.46,0-2.2.45-2.2,1.34,0,.35.13.63.4.84.27.21.97.39,2.1.53,1.69.22,2.94.48,3.75.77s1.45.79,1.93,1.48.71,1.55.71,2.56c0,1.52-.58,2.76-1.74,3.72-1.16.96-2.78,1.44-4.86,1.44-3.77,0-6.02-1.46-6.75-4.38l3.68-.54c.3,1.33,1.4,1.99,3.28,1.99.72,0,1.33-.13,1.83-.39.5-.26.75-.61.75-1.05,0-.68-.55-1.09-1.66-1.22-2.99-.37-4.95-.94-5.9-1.72-.94-.78-1.41-1.86-1.41-3.25s.55-2.57,1.64-3.49,2.63-1.38,4.6-1.38c1.56,0,2.81.31,3.75.92s1.66,1.6,2.15,2.96Zm8.28-.18v6.25c0,.78.12,1.3.35,1.57s.78.4,1.65.4c.4,0,.86-.02,1.39-.06v3.24c-1.27.21-2.18.32-2.74.32-1.82,0-3.11-.35-3.87-1.05s-1.14-1.96-1.14-3.79v-6.88h-2.34v-3.4h2.59l.35-4.37,3.76-.29v4.66h3.18v3.4h-3.18Zm28.54-8.6l-5.46,9.28,6.18,10.71h-5.42l-4.01-7.25-4.01,7.25h-4.44l6.2-10.66-5.49-9.34h5.46l3.24,6.07,3.4-6.07h4.37Zm.76,10.8h7v3.18h-7v-3.18Zm14.09,1.27v7.92h-4.72v-20h8.79c1.62,0,2.92.19,3.9.56.98.38,1.79,1.07,2.44,2.07.64,1.01.97,2.12.97,3.35,0,2.4-1.16,4.12-3.47,5.17l3.69,8.84h-5.18l-3.07-7.92h-3.36Zm0-8.51v5.1h2.87c.94,0,1.62-.07,2.04-.2.42-.13.8-.43,1.13-.88.33-.46.5-.97.5-1.56s-.17-1.05-.5-1.49-.69-.71-1.08-.81c-.39-.1-1.12-.15-2.2-.15h-2.77Zm27.7,16.44h-4.23c-.14-.59-.21-1.36-.21-2.31-.74,1.05-1.48,1.76-2.22,2.1-.74.35-1.57.52-2.51.52-1.38,0-2.5-.38-3.36-1.13-.85-.75-1.28-1.76-1.28-3.03,0-.93.25-1.78.75-2.56s1.3-1.39,2.4-1.84,3.11-.77,6.03-.99v-.85c0-1.44-.72-2.15-2.15-2.15-1.53,0-2.38.72-2.56,2.15l-4.03-.38c.26-1.68,1.06-2.87,2.39-3.57s2.83-1.05,4.51-1.05c1.01,0,1.95.12,2.84.35s1.58.59,2.08,1.05.83.96,1.01,1.49.26,1.43.26,2.73v6.71c0,1.29.09,2.21.26,2.77Zm-4.63-7.09c-3.05.3-4.57,1.23-4.57,2.77,0,.52.16.96.48,1.34s.78.56,1.37.56c.77,0,1.41-.32,1.93-.96.52-.64.78-1.43.78-2.37v-1.35Zm19.07-7.71l-4.64,14.19c-.52,1.58-.96,2.73-1.33,3.43s-.89,1.28-1.58,1.7c-.69.42-1.65.64-2.88.64-.62,0-1.31-.06-2.1-.18v-3.35c.77.14,1.49.21,2.14.21.86,0,1.44-.16,1.73-.48.29-.32.51-.78.66-1.36l-5.39-14.79h4.61l2.85,8.8,2.74-8.8h3.17Z" style="fill: #a6b2cc; stroke-width: 0px;"/>
      <path d="m39.17,60.05v28.71H14.52V9.6h33.81c6.07,0,10.99.48,14.76,1.45,3.77.97,7.1,2.57,10,4.81,3.25,2.59,5.64,5.97,7.19,10.15,1.04,2.78,1.57,5.7,1.57,8.76,0,3.67-.72,7.15-2.17,10.44-1.45,3.29-3.47,6.03-6.06,8.23-5.18,4.41-12.06,6.61-20.65,6.61h-13.8Zm-.35-17.05h8.18c3.52,0,6.07-.52,7.66-1.57,2.01-1.35,3.02-3.44,3.02-6.26,0-4.95-3.31-7.42-9.92-7.42h-8.93v15.25Zm118.6,45.76h-19.78l-21.69-34.97-2.26-4.12c-2.4-4.29-4.45-8.37-6.15-12.24,1.28,5.53,1.91,9.86,1.91,12.99v38.33h-19.72V9.6h22.97l18.44,29c3.67,5.76,6.46,10.83,8.35,15.19-1.24-7.35-1.86-14.27-1.86-20.76V9.6h19.78v79.16ZM269.92,9.6l-20.99,79.16h-20.41l-11.08-43.67-10.44,43.67h-21.28l-21.05-79.16h22.85l11.08,45.7,10.79-45.7h19.14l11.71,45.7,11.08-45.7h18.62Zm75.45,0l-22.97,36.77,26.62,42.39h-28.24l-14.61-24.88-14.73,24.88h-22.27l25.52-41-24.47-38.16h28.3l12.29,21.28,12.76-21.28h21.81Z" style="fill: #476cb4; opacity: .86; stroke-width: 0px;"/>
    </g>
  </g>
</svg>