<?xml version="1.0" encoding="UTF-8"?>
<svg id="b" data-name="Layer 2" xmlns="http://www.w3.org/2000/svg" viewBox="0 0 64 64">
  <g id="c" data-name="Layer 2">
    <g>
      <rect width="64" height="64" style="fill: #0c2238; stroke-width: 0px;"/>
      <path d="m15.86,21.64v9.11h-7.8V5.68h10.71c2.67,0,4.7.31,6.09.92s2.49,1.55,3.31,2.81,1.22,2.67,1.22,4.24c0,2.39-.83,4.32-2.5,5.78s-3.89,2.2-6.67,2.2h-4.35Zm-.11-5.38h2.57c2.26,0,3.4-.83,3.4-2.5,0-1.57-1.05-2.35-3.14-2.35h-2.83v4.85Zm39.42,14.49h-6.26l-6.86-11.07c-.88-1.42-1.77-3.15-2.67-5.18.4,1.62.61,2.99.61,4.11v12.14h-6.24V5.68h7.27l5.84,9.18c1.16,1.82,2.04,3.43,2.64,4.81-.39-2.14-.59-4.33-.59-6.57v-7.42h6.26v25.07Zm-19.03,2.51l-6.65,25.07h-6.46l-3.51-13.83-3.31,13.83h-6.74l-6.66-25.07h7.24l3.51,14.43,3.42-14.43h6.04l3.72,14.45,3.51-14.45h5.89Zm23.89,0l-7.29,11.63,8.44,13.44h-8.95l-4.63-7.89-4.67,7.89h-7.04l8.07-12.94-7.74-12.12h8.97l3.89,6.75,4.04-6.75h6.91Z" style="fill: #476cb4; opacity: .86; stroke-width: 0px;"/>
    </g>
  </g>
</svg>